<?xml version="1.0" encoding="UTF-8" standalone="no"?>
<!DOCTYPE svg PUBLIC "-//W3C//DTD SVG 1.1//EN" "http://www.w3.org/Graphics/SVG/1.1/DTD/svg11.dtd">
<svg width="100%" height="100%" viewBox="0 0 1000 1000" version="1.1" xmlns="http://www.w3.org/2000/svg" xmlns:xlink="http://www.w3.org/1999/xlink" xml:space="preserve" xmlns:serif="http://www.serif.com/" style="fill-rule:evenodd;clip-rule:evenodd;stroke-linejoin:round;stroke-miterlimit:2;">
    <g id="paper" transform="matrix(-0.993311,-0.950513,-1.06492,1.11286,1460.54,586.485)">
        <path d="M697.586,355.781C697.586,355.781 632.155,271.874 518.835,310.637C381.683,357.552 283.912,245.396 286.789,242.713L238.868,548.564C238.868,548.564 371.103,660.312 476.136,607.242C609.38,539.918 697.586,662.008 697.586,662.008L697.586,355.781Z" style="fill:rgb(255,244,192);"/>
    </g>
    <g id="pencil" transform="matrix(1.33323,0.0339582,-0.0339582,1.33323,46.9568,-306.575)">
        <g transform="matrix(0.945497,0.32563,-0.311188,0.903564,-9.22736,-244.542)">
            <path d="M799.238,291.215C799.238,284.075 796.527,277.228 791.703,272.179C786.878,267.131 780.335,264.295 773.512,264.295C767.522,264.295 761.143,264.295 755.15,264.295C748.308,264.295 741.746,267.139 736.908,272.201C732.07,277.264 729.352,284.13 729.352,291.29L729.352,711.563L799.238,711.563L799.238,291.215Z" style="fill:rgb(255,190,30);"/>
        </g>
        <g transform="matrix(1.28719,0.444246,-0.270552,0.783919,-234.416,-154.861)">
            <path d="M721.957,148.214C721.957,124.951 710.455,106.064 696.287,106.064C682.12,106.064 670.618,124.951 670.618,148.214L670.618,191.361L721.957,191.361L721.957,148.214Z" style="fill:rgb(255,118,90);"/>
        </g>
        <g transform="matrix(0.888027,0.305772,-0.284045,0.824927,142.655,-75.5074)">
            <rect x="565.017" y="217.904" width="74.425" height="30.707" style="fill:rgb(154,154,154);"/>
        </g>
        <g transform="matrix(-0.781464,-0.26908,0.233659,-0.678596,688.025,1024.83)">
            <path d="M373.101,230.78L415.388,408.603L330.814,408.603L373.101,230.78Z" style="fill:rgb(255,240,198);"/>
        </g>
        <g transform="matrix(-0.781464,-0.26908,0.233659,-0.678596,688.025,1024.83)">
            <clipPath id="_clip1">
                <rect x="330.814" y="230.78" width="84.574" height="47.66"/>
            </clipPath>
            <g clip-path="url(#_clip1)">
                <path d="M373.101,230.78L415.388,408.603L330.814,408.603L373.101,230.78Z"/>
            </g>
        </g>
    </g>
</svg>
