<?xml version="1.0" encoding="UTF-8" standalone="no"?>
<!DOCTYPE svg PUBLIC "-//W3C//DTD SVG 1.1//EN" "http://www.w3.org/Graphics/SVG/1.1/DTD/svg11.dtd">
<svg width="100%" height="100%" viewBox="0 0 1400 1400" version="1.1" xmlns="http://www.w3.org/2000/svg" xmlns:xlink="http://www.w3.org/1999/xlink" xml:space="preserve" xmlns:serif="http://www.serif.com/" style="fill-rule:evenodd;clip-rule:evenodd;stroke-linejoin:round;stroke-miterlimit:2;">
    <g id="notebook" transform="matrix(1,0,0,1,-68.562,200.127)">
        <g transform="matrix(1.00683,0,0,1,39.397,39.136)">
            <path d="M743.583,241.398C743.583,224.02 729.57,209.911 712.31,209.911L253.637,209.911C236.376,209.911 222.363,224.02 222.363,241.398L222.363,989.606C222.363,1006.98 236.376,1021.09 253.637,1021.09L712.31,1021.09C729.57,1021.09 743.583,1006.98 743.583,989.606L743.583,241.398Z" style="fill:rgb(0,104,255);"/>
        </g>
        <g transform="matrix(0.657143,0,0,1,90.8094,0)">
            <g transform="matrix(1,0,0,0.465244,37.1607,66.3265)">
                <path d="M277.51,521.22C277.51,503.547 267.352,489.199 254.84,489.199L200.56,489.199C188.049,489.199 177.891,503.547 177.891,521.22C177.891,538.892 188.049,553.24 200.56,553.24L254.84,553.24C267.352,553.24 277.51,538.892 277.51,521.22Z" style="fill:rgb(82,82,82);"/>
            </g>
            <g transform="matrix(1,0,0,0.465244,37.1607,118.06)">
                <path d="M277.51,521.22C277.51,503.547 267.352,489.199 254.84,489.199L200.56,489.199C188.049,489.199 177.891,503.547 177.891,521.22C177.891,538.892 188.049,553.24 200.56,553.24L254.84,553.24C267.352,553.24 277.51,538.892 277.51,521.22Z" style="fill:rgb(82,82,82);"/>
            </g>
            <g transform="matrix(1,0,0,0.465244,37.1607,171.979)">
                <path d="M277.51,521.22C277.51,503.547 267.352,489.199 254.84,489.199L200.56,489.199C188.049,489.199 177.891,503.547 177.891,521.22C177.891,538.892 188.049,553.24 200.56,553.24L254.84,553.24C267.352,553.24 277.51,538.892 277.51,521.22Z" style="fill:rgb(82,82,82);"/>
            </g>
            <g transform="matrix(1,0,0,0.465244,37.1607,225.899)">
                <path d="M277.51,521.22C277.51,503.547 267.352,489.199 254.84,489.199L200.56,489.199C188.049,489.199 177.891,503.547 177.891,521.22C177.891,538.892 188.049,553.24 200.56,553.24L254.84,553.24C267.352,553.24 277.51,538.892 277.51,521.22Z" style="fill:rgb(82,82,82);"/>
            </g>
            <g transform="matrix(1,0,0,0.465244,37.1607,384.014)">
                <path d="M277.51,521.22C277.51,503.547 267.352,489.199 254.84,489.199L200.56,489.199C188.049,489.199 177.891,503.547 177.891,521.22C177.891,538.892 188.049,553.24 200.56,553.24L254.84,553.24C267.352,553.24 277.51,538.892 277.51,521.22Z" style="fill:rgb(82,82,82);"/>
            </g>
            <g transform="matrix(1,0,0,0.465244,37.1607,545.043)">
                <path d="M277.51,521.22C277.51,503.547 267.352,489.199 254.84,489.199L200.56,489.199C188.049,489.199 177.891,503.547 177.891,521.22C177.891,538.892 188.049,553.24 200.56,553.24L254.84,553.24C267.352,553.24 277.51,538.892 277.51,521.22Z" style="fill:rgb(82,82,82);"/>
            </g>
            <g transform="matrix(1,0,0,0.465244,37.1607,278.361)">
                <path d="M277.51,521.22C277.51,503.547 267.352,489.199 254.84,489.199L200.56,489.199C188.049,489.199 177.891,503.547 177.891,521.22C177.891,538.892 188.049,553.24 200.56,553.24L254.84,553.24C267.352,553.24 277.51,538.892 277.51,521.22Z" style="fill:rgb(82,82,82);"/>
            </g>
            <g transform="matrix(1,0,0,0.465244,37.1607,436.476)">
                <path d="M277.51,521.22C277.51,503.547 267.352,489.199 254.84,489.199L200.56,489.199C188.049,489.199 177.891,503.547 177.891,521.22C177.891,538.892 188.049,553.24 200.56,553.24L254.84,553.24C267.352,553.24 277.51,538.892 277.51,521.22Z" style="fill:rgb(82,82,82);"/>
            </g>
            <g transform="matrix(1,0,0,0.465244,37.1607,597.505)">
                <path d="M277.51,521.22C277.51,503.547 267.352,489.199 254.84,489.199L200.56,489.199C188.049,489.199 177.891,503.547 177.891,521.22C177.891,538.892 188.049,553.24 200.56,553.24L254.84,553.24C267.352,553.24 277.51,538.892 277.51,521.22Z" style="fill:rgb(82,82,82);"/>
            </g>
            <g transform="matrix(1,0,0,0.465244,37.1607,708.987)">
                <path d="M277.51,521.22C277.51,503.547 267.352,489.199 254.84,489.199L200.56,489.199C188.049,489.199 177.891,503.547 177.891,521.22C177.891,538.892 188.049,553.24 200.56,553.24L254.84,553.24C267.352,553.24 277.51,538.892 277.51,521.22Z" style="fill:rgb(82,82,82);"/>
            </g>
            <g transform="matrix(1,0,0,0.465244,37.1607,331.552)">
                <path d="M277.51,521.22C277.51,503.547 267.352,489.199 254.84,489.199L200.56,489.199C188.049,489.199 177.891,503.547 177.891,521.22C177.891,538.892 188.049,553.24 200.56,553.24L254.84,553.24C267.352,553.24 277.51,538.892 277.51,521.22Z" style="fill:rgb(82,82,82);"/>
            </g>
            <g transform="matrix(1,0,0,0.465244,37.1607,489.667)">
                <path d="M277.51,521.22C277.51,503.547 267.352,489.199 254.84,489.199L200.56,489.199C188.049,489.199 177.891,503.547 177.891,521.22C177.891,538.892 188.049,553.24 200.56,553.24L254.84,553.24C267.352,553.24 277.51,538.892 277.51,521.22Z" style="fill:rgb(82,82,82);"/>
            </g>
            <g transform="matrix(1,0,0,0.465244,37.1607,650.696)">
                <path d="M277.51,521.22C277.51,503.547 267.352,489.199 254.84,489.199L200.56,489.199C188.049,489.199 177.891,503.547 177.891,521.22C177.891,538.892 188.049,553.24 200.56,553.24L254.84,553.24C267.352,553.24 277.51,538.892 277.51,521.22Z" style="fill:rgb(82,82,82);"/>
            </g>
            <g transform="matrix(1,0,0,0.465244,37.1607,762.178)">
                <path d="M277.51,521.22C277.51,503.547 267.352,489.199 254.84,489.199L200.56,489.199C188.049,489.199 177.891,503.547 177.891,521.22C177.891,538.892 188.049,553.24 200.56,553.24L254.84,553.24C267.352,553.24 277.51,538.892 277.51,521.22Z" style="fill:rgb(82,82,82);"/>
            </g>
        </g>
        <g transform="matrix(1.01714,0,0,1,25.814,-229.775)">
            <path d="M656.05,584.251C656.05,570.751 645.275,559.791 632.003,559.791L355.818,559.791C342.546,559.791 331.77,570.751 331.77,584.251L331.77,739.164C331.77,752.664 342.546,763.624 355.818,763.624L632.003,763.624C645.275,763.624 656.05,752.664 656.05,739.164L656.05,584.251Z" style="fill:rgb(255,253,211);"/>
        </g>
    </g>
    <g id="notebook1" serif:id="notebook" transform="matrix(1,0,0,1,205.686,-116.741)">
        <g transform="matrix(1.00683,0,0,1,39.397,39.136)">
            <path d="M743.583,241.398C743.583,224.02 729.57,209.911 712.31,209.911L253.637,209.911C236.376,209.911 222.363,224.02 222.363,241.398L222.363,989.606C222.363,1006.98 236.376,1021.09 253.637,1021.09L712.31,1021.09C729.57,1021.09 743.583,1006.98 743.583,989.606L743.583,241.398Z" style="fill:rgb(255,115,88);"/>
        </g>
        <g transform="matrix(0.657143,0,0,1,90.8094,0)">
            <g transform="matrix(1,0,0,0.465244,37.1607,66.3265)">
                <path d="M277.51,521.22C277.51,503.547 267.352,489.199 254.84,489.199L200.56,489.199C188.049,489.199 177.891,503.547 177.891,521.22C177.891,538.892 188.049,553.24 200.56,553.24L254.84,553.24C267.352,553.24 277.51,538.892 277.51,521.22Z" style="fill:rgb(82,82,82);"/>
            </g>
            <g transform="matrix(1,0,0,0.465244,37.1607,118.06)">
                <path d="M277.51,521.22C277.51,503.547 267.352,489.199 254.84,489.199L200.56,489.199C188.049,489.199 177.891,503.547 177.891,521.22C177.891,538.892 188.049,553.24 200.56,553.24L254.84,553.24C267.352,553.24 277.51,538.892 277.51,521.22Z" style="fill:rgb(82,82,82);"/>
            </g>
            <g transform="matrix(1,0,0,0.465244,37.1607,171.979)">
                <path d="M277.51,521.22C277.51,503.547 267.352,489.199 254.84,489.199L200.56,489.199C188.049,489.199 177.891,503.547 177.891,521.22C177.891,538.892 188.049,553.24 200.56,553.24L254.84,553.24C267.352,553.24 277.51,538.892 277.51,521.22Z" style="fill:rgb(82,82,82);"/>
            </g>
            <g transform="matrix(1,0,0,0.465244,37.1607,225.899)">
                <path d="M277.51,521.22C277.51,503.547 267.352,489.199 254.84,489.199L200.56,489.199C188.049,489.199 177.891,503.547 177.891,521.22C177.891,538.892 188.049,553.24 200.56,553.24L254.84,553.24C267.352,553.24 277.51,538.892 277.51,521.22Z" style="fill:rgb(82,82,82);"/>
            </g>
            <g transform="matrix(1,0,0,0.465244,37.1607,384.014)">
                <path d="M277.51,521.22C277.51,503.547 267.352,489.199 254.84,489.199L200.56,489.199C188.049,489.199 177.891,503.547 177.891,521.22C177.891,538.892 188.049,553.24 200.56,553.24L254.84,553.24C267.352,553.24 277.51,538.892 277.51,521.22Z" style="fill:rgb(82,82,82);"/>
            </g>
            <g transform="matrix(1,0,0,0.465244,37.1607,545.043)">
                <path d="M277.51,521.22C277.51,503.547 267.352,489.199 254.84,489.199L200.56,489.199C188.049,489.199 177.891,503.547 177.891,521.22C177.891,538.892 188.049,553.24 200.56,553.24L254.84,553.24C267.352,553.24 277.51,538.892 277.51,521.22Z" style="fill:rgb(82,82,82);"/>
            </g>
            <g transform="matrix(1,0,0,0.465244,37.1607,278.361)">
                <path d="M277.51,521.22C277.51,503.547 267.352,489.199 254.84,489.199L200.56,489.199C188.049,489.199 177.891,503.547 177.891,521.22C177.891,538.892 188.049,553.24 200.56,553.24L254.84,553.24C267.352,553.24 277.51,538.892 277.51,521.22Z" style="fill:rgb(82,82,82);"/>
            </g>
            <g transform="matrix(1,0,0,0.465244,37.1607,436.476)">
                <path d="M277.51,521.22C277.51,503.547 267.352,489.199 254.84,489.199L200.56,489.199C188.049,489.199 177.891,503.547 177.891,521.22C177.891,538.892 188.049,553.24 200.56,553.24L254.84,553.24C267.352,553.24 277.51,538.892 277.51,521.22Z" style="fill:rgb(82,82,82);"/>
            </g>
            <g transform="matrix(1,0,0,0.465244,37.1607,597.505)">
                <path d="M277.51,521.22C277.51,503.547 267.352,489.199 254.84,489.199L200.56,489.199C188.049,489.199 177.891,503.547 177.891,521.22C177.891,538.892 188.049,553.24 200.56,553.24L254.84,553.24C267.352,553.24 277.51,538.892 277.51,521.22Z" style="fill:rgb(82,82,82);"/>
            </g>
            <g transform="matrix(1,0,0,0.465244,37.1607,708.987)">
                <path d="M277.51,521.22C277.51,503.547 267.352,489.199 254.84,489.199L200.56,489.199C188.049,489.199 177.891,503.547 177.891,521.22C177.891,538.892 188.049,553.24 200.56,553.24L254.84,553.24C267.352,553.24 277.51,538.892 277.51,521.22Z" style="fill:rgb(82,82,82);"/>
            </g>
            <g transform="matrix(1,0,0,0.465244,37.1607,331.552)">
                <path d="M277.51,521.22C277.51,503.547 267.352,489.199 254.84,489.199L200.56,489.199C188.049,489.199 177.891,503.547 177.891,521.22C177.891,538.892 188.049,553.24 200.56,553.24L254.84,553.24C267.352,553.24 277.51,538.892 277.51,521.22Z" style="fill:rgb(82,82,82);"/>
            </g>
            <g transform="matrix(1,0,0,0.465244,37.1607,489.667)">
                <path d="M277.51,521.22C277.51,503.547 267.352,489.199 254.84,489.199L200.56,489.199C188.049,489.199 177.891,503.547 177.891,521.22C177.891,538.892 188.049,553.24 200.56,553.24L254.84,553.24C267.352,553.24 277.51,538.892 277.51,521.22Z" style="fill:rgb(82,82,82);"/>
            </g>
            <g transform="matrix(1,0,0,0.465244,37.1607,650.696)">
                <path d="M277.51,521.22C277.51,503.547 267.352,489.199 254.84,489.199L200.56,489.199C188.049,489.199 177.891,503.547 177.891,521.22C177.891,538.892 188.049,553.24 200.56,553.24L254.84,553.24C267.352,553.24 277.51,538.892 277.51,521.22Z" style="fill:rgb(82,82,82);"/>
            </g>
            <g transform="matrix(1,0,0,0.465244,37.1607,762.178)">
                <path d="M277.51,521.22C277.51,503.547 267.352,489.199 254.84,489.199L200.56,489.199C188.049,489.199 177.891,503.547 177.891,521.22C177.891,538.892 188.049,553.24 200.56,553.24L254.84,553.24C267.352,553.24 277.51,538.892 277.51,521.22Z" style="fill:rgb(82,82,82);"/>
            </g>
        </g>
        <g transform="matrix(1.01714,0,0,1,25.814,-229.775)">
            <path d="M656.05,584.251C656.05,570.751 645.275,559.791 632.003,559.791L355.818,559.791C342.546,559.791 331.77,570.751 331.77,584.251L331.77,739.164C331.77,752.664 342.546,763.624 355.818,763.624L632.003,763.624C645.275,763.624 656.05,752.664 656.05,739.164L656.05,584.251Z" style="fill:rgb(255,253,211);"/>
        </g>
    </g>
    <g id="notebook2" serif:id="notebook" transform="matrix(1,0,0,1,524.407,203.833)">
        <g transform="matrix(1.00683,0,0,1,39.397,39.136)">
            <path d="M743.583,241.398C743.583,224.02 729.57,209.911 712.31,209.911L253.637,209.911C236.376,209.911 222.363,224.02 222.363,241.398L222.363,989.606C222.363,1006.98 236.376,1021.09 253.637,1021.09L712.31,1021.09C729.57,1021.09 743.583,1006.98 743.583,989.606L743.583,241.398Z" style="fill:rgb(0,123,9);"/>
        </g>
        <g transform="matrix(0.657143,0,0,1,90.8094,0)">
            <g transform="matrix(1,0,0,0.465244,37.1607,66.3265)">
                <path d="M277.51,521.22C277.51,503.547 267.352,489.199 254.84,489.199L200.56,489.199C188.049,489.199 177.891,503.547 177.891,521.22C177.891,538.892 188.049,553.24 200.56,553.24L254.84,553.24C267.352,553.24 277.51,538.892 277.51,521.22Z" style="fill:rgb(82,82,82);"/>
            </g>
            <g transform="matrix(1,0,0,0.465244,37.1607,118.06)">
                <path d="M277.51,521.22C277.51,503.547 267.352,489.199 254.84,489.199L200.56,489.199C188.049,489.199 177.891,503.547 177.891,521.22C177.891,538.892 188.049,553.24 200.56,553.24L254.84,553.24C267.352,553.24 277.51,538.892 277.51,521.22Z" style="fill:rgb(82,82,82);"/>
            </g>
            <g transform="matrix(1,0,0,0.465244,37.1607,171.979)">
                <path d="M277.51,521.22C277.51,503.547 267.352,489.199 254.84,489.199L200.56,489.199C188.049,489.199 177.891,503.547 177.891,521.22C177.891,538.892 188.049,553.24 200.56,553.24L254.84,553.24C267.352,553.24 277.51,538.892 277.51,521.22Z" style="fill:rgb(82,82,82);"/>
            </g>
            <g transform="matrix(1,0,0,0.465244,37.1607,225.899)">
                <path d="M277.51,521.22C277.51,503.547 267.352,489.199 254.84,489.199L200.56,489.199C188.049,489.199 177.891,503.547 177.891,521.22C177.891,538.892 188.049,553.24 200.56,553.24L254.84,553.24C267.352,553.24 277.51,538.892 277.51,521.22Z" style="fill:rgb(82,82,82);"/>
            </g>
            <g transform="matrix(1,0,0,0.465244,37.1607,384.014)">
                <path d="M277.51,521.22C277.51,503.547 267.352,489.199 254.84,489.199L200.56,489.199C188.049,489.199 177.891,503.547 177.891,521.22C177.891,538.892 188.049,553.24 200.56,553.24L254.84,553.24C267.352,553.24 277.51,538.892 277.51,521.22Z" style="fill:rgb(82,82,82);"/>
            </g>
            <g transform="matrix(1,0,0,0.465244,37.1607,545.043)">
                <path d="M277.51,521.22C277.51,503.547 267.352,489.199 254.84,489.199L200.56,489.199C188.049,489.199 177.891,503.547 177.891,521.22C177.891,538.892 188.049,553.24 200.56,553.24L254.84,553.24C267.352,553.24 277.51,538.892 277.51,521.22Z" style="fill:rgb(82,82,82);"/>
            </g>
            <g transform="matrix(1,0,0,0.465244,37.1607,278.361)">
                <path d="M277.51,521.22C277.51,503.547 267.352,489.199 254.84,489.199L200.56,489.199C188.049,489.199 177.891,503.547 177.891,521.22C177.891,538.892 188.049,553.24 200.56,553.24L254.84,553.24C267.352,553.24 277.51,538.892 277.51,521.22Z" style="fill:rgb(82,82,82);"/>
            </g>
            <g transform="matrix(1,0,0,0.465244,37.1607,436.476)">
                <path d="M277.51,521.22C277.51,503.547 267.352,489.199 254.84,489.199L200.56,489.199C188.049,489.199 177.891,503.547 177.891,521.22C177.891,538.892 188.049,553.24 200.56,553.24L254.84,553.24C267.352,553.24 277.51,538.892 277.51,521.22Z" style="fill:rgb(82,82,82);"/>
            </g>
            <g transform="matrix(1,0,0,0.465244,37.1607,597.505)">
                <path d="M277.51,521.22C277.51,503.547 267.352,489.199 254.84,489.199L200.56,489.199C188.049,489.199 177.891,503.547 177.891,521.22C177.891,538.892 188.049,553.24 200.56,553.24L254.84,553.24C267.352,553.24 277.51,538.892 277.51,521.22Z" style="fill:rgb(82,82,82);"/>
            </g>
            <g transform="matrix(1,0,0,0.465244,37.1607,708.987)">
                <path d="M277.51,521.22C277.51,503.547 267.352,489.199 254.84,489.199L200.56,489.199C188.049,489.199 177.891,503.547 177.891,521.22C177.891,538.892 188.049,553.24 200.56,553.24L254.84,553.24C267.352,553.24 277.51,538.892 277.51,521.22Z" style="fill:rgb(82,82,82);"/>
            </g>
            <g transform="matrix(1,0,0,0.465244,37.1607,331.552)">
                <path d="M277.51,521.22C277.51,503.547 267.352,489.199 254.84,489.199L200.56,489.199C188.049,489.199 177.891,503.547 177.891,521.22C177.891,538.892 188.049,553.24 200.56,553.24L254.84,553.24C267.352,553.24 277.51,538.892 277.51,521.22Z" style="fill:rgb(82,82,82);"/>
            </g>
            <g transform="matrix(1,0,0,0.465244,37.1607,489.667)">
                <path d="M277.51,521.22C277.51,503.547 267.352,489.199 254.84,489.199L200.56,489.199C188.049,489.199 177.891,503.547 177.891,521.22C177.891,538.892 188.049,553.24 200.56,553.24L254.84,553.24C267.352,553.24 277.51,538.892 277.51,521.22Z" style="fill:rgb(82,82,82);"/>
            </g>
            <g transform="matrix(1,0,0,0.465244,37.1607,650.696)">
                <path d="M277.51,521.22C277.51,503.547 267.352,489.199 254.84,489.199L200.56,489.199C188.049,489.199 177.891,503.547 177.891,521.22C177.891,538.892 188.049,553.24 200.56,553.24L254.84,553.24C267.352,553.24 277.51,538.892 277.51,521.22Z" style="fill:rgb(82,82,82);"/>
            </g>
            <g transform="matrix(1,0,0,0.465244,37.1607,762.178)">
                <path d="M277.51,521.22C277.51,503.547 267.352,489.199 254.84,489.199L200.56,489.199C188.049,489.199 177.891,503.547 177.891,521.22C177.891,538.892 188.049,553.24 200.56,553.24L254.84,553.24C267.352,553.24 277.51,538.892 277.51,521.22Z" style="fill:rgb(82,82,82);"/>
            </g>
        </g>
        <g transform="matrix(1.01714,0,0,1,25.814,-229.775)">
            <path d="M656.05,584.251C656.05,570.751 645.275,559.791 632.003,559.791L355.818,559.791C342.546,559.791 331.77,570.751 331.77,584.251L331.77,739.164C331.77,752.664 342.546,763.624 355.818,763.624L632.003,763.624C645.275,763.624 656.05,752.664 656.05,739.164L656.05,584.251Z" style="fill:rgb(255,253,211);"/>
        </g>
    </g>
</svg>
